<?xml version="1.0" encoding="UTF-8"?>
<svg width="600" height="600" viewBox="0 0 600 600" xmlns="http://www.w3.org/2000/svg">
    <!-- 背景渐变 -->
    <defs>
        <linearGradient id="bg" x1="0%" y1="0%" x2="100%" y2="100%">
            <stop offset="0%" style="stop-color:#6200ea"/>
            <stop offset="100%" style="stop-color:#1976d2"/>
        </linearGradient>
        <filter id="glow" x="-50%" y="-50%" width="200%" height="200%">
            <feGaussianBlur in="SourceGraphic" stdDeviation="5"/>
        </filter>
    </defs>
    
    <!-- 背景 -->
    <rect width="600" height="600" fill="url(#bg)"/>
    
    <!-- 装饰性圆环 -->
    <circle cx="300" cy="300" r="250" fill="none" stroke="rgba(255,255,255,0.1)" stroke-width="40"/>
    <circle cx="300" cy="300" r="200" fill="none" stroke="rgba(255,255,255,0.15)" stroke-width="30"/>
    
    <!-- 中心游戏控制器图标 -->
    <g transform="translate(300,300)">
        <!-- 控制器主体 -->
        <path d="M-100,-30 L100,-30 Q130,-30 130,0 L130,50 Q130,80 100,80 L-100,80 Q-130,80 -130,50 L-130,0 Q-130,-30 -100,-30" 
              fill="#ffffff" opacity="0.9"/>
        
        <!-- 按钮 -->
        <circle cx="-70" cy="0" r="15" fill="#6200ea"/>
        <circle cx="-30" cy="0" r="15" fill="#1976d2"/>
        <rect x="30" y="-20" width="80" height="40" rx="5" fill="#333"/>
        
        <!-- 方向键 -->
        <g transform="translate(-80,40)">
            <rect x="-15" y="-5" width="30" height="10" fill="#333"/>
            <rect x="-5" y="-15" width="10" height="30" fill="#333"/>
        </g>
    </g>
    
    <!-- 周围的怪物图标 -->
    <!-- 上方怪物 -->
    <g transform="translate(300,100)">
        <circle cx="0" cy="0" r="40" fill="#ff4081"/>
        <circle cx="-15" cy="-10" r="8" fill="white"/>
        <circle cx="15" cy="-10" r="8" fill="white"/>
        <path d="M-20,15 Q0,30 20,15" fill="none" stroke="white" stroke-width="4"/>
    </g>
    
    <!-- 右侧怪物 -->
    <g transform="translate(500,300)">
        <circle cx="0" cy="0" r="40" fill="#64ffda"/>
        <circle cx="-15" cy="-10" r="8" fill="white"/>
        <circle cx="15" cy="-10" r="8" fill="white"/>
        <path d="M-20,15 Q0,30 20,15" fill="none" stroke="white" stroke-width="4"/>
    </g>
    
    <!-- 下方怪物 -->
    <g transform="translate(300,500)">
        <circle cx="0" cy="0" r="40" fill="#ffeb3b"/>
        <circle cx="-15" cy="-10" r="8" fill="white"/>
        <circle cx="15" cy="-10" r="8" fill="white"/>
        <path d="M-20,15 Q0,30 20,15" fill="none" stroke="white" stroke-width="4"/>
    </g>
    
    <!-- 左侧怪物 -->
    <g transform="translate(100,300)">
        <circle cx="0" cy="0" r="40" fill="#69f0ae"/>
        <circle cx="-15" cy="-10" r="8" fill="white"/>
        <circle cx="15" cy="-10" r="8" fill="white"/>
        <path d="M-20,15 Q0,30 20,15" fill="none" stroke="white" stroke-width="4"/>
    </g>
    
    <!-- 连接线 -->
    <g stroke="rgba(255,255,255,0.3)" stroke-width="2" stroke-dasharray="5,5">
        <line x1="300" y1="140" x2="300" y2="260"/>
        <line x1="340" y1="300" x2="460" y2="300"/>
        <line x1="300" y1="340" x2="300" y2="460"/>
        <line x1="140" y1="300" x2="260" y2="300"/>
    </g>
    
    <!-- 发光粒子效果 -->
    <g fill="white" filter="url(#glow)">
        <circle cx="200" cy="150" r="3" opacity="0.6"/>
        <circle cx="400" cy="150" r="2" opacity="0.4"/>
        <circle cx="150" cy="400" r="2" opacity="0.5"/>
        <circle cx="450" cy="400" r="3" opacity="0.3"/>
        <circle cx="300" cy="200" r="2" opacity="0.4"/>
        <circle cx="200" cy="300" r="3" opacity="0.5"/>
        <circle cx="400" cy="300" r="2" opacity="0.6"/>
    </g>
</svg> 