<?xml version="1.0" encoding="UTF-8"?>
<svg width="400" height="300" xmlns="http://www.w3.org/2000/svg">
    <defs>
        <linearGradient id="grad14" x1="0%" y1="0%" x2="100%" y2="100%">
            <stop offset="0%" style="stop-color:#6b46c1;stop-opacity:1" />
            <stop offset="100%" style="stop-color:#44337a;stop-opacity:1" />
        </linearGradient>
    </defs>
    <rect width="100%" height="100%" fill="url(#grad14)"/>
    <!-- Castle -->
    <rect x="100" y="100" width="200" height="150" fill="#718096"/>
    <path d="M80 100 L320 100 L200 30 Z" fill="#718096"/>
    <!-- Windows -->
    <rect x="130" y="130" width="30" height="40" fill="#2d3748"/>
    <rect x="185" y="130" width="30" height="40" fill="#2d3748"/>
    <rect x="240" y="130" width="30" height="40" fill="#2d3748"/>
    <!-- Door -->
    <path d="M180 200 L220 200 L220 250 L180 250 Z" fill="#2d3748"/>
    <!-- Monster king -->
    <circle cx="200" cy="80" r="25" fill="#f6ad55"/>
    <circle cx="190" cy="75" r="5" fill="#2d3748"/>
    <circle cx="210" cy="75" r="5" fill="#2d3748"/>
    <path d="M190 85 Q200 90 210 85" stroke="#2d3748" stroke-width="2" fill="none"/>
    <!-- Crown -->
    <path d="M180 60 L220 60 L210 45 L200 55 L190 45 L180 60" fill="#f6e05e"/>
    <text x="50%" y="80%" font-family="Arial" font-size="24" fill="#ffffff" text-anchor="middle">
        Monster Kingdom
    </text>
</svg> 