<?xml version="1.0" encoding="UTF-8"?>
<svg width="400" height="300" xmlns="http://www.w3.org/2000/svg">
    <defs>
        <linearGradient id="grad15" x1="0%" y1="0%" x2="100%" y2="100%">
            <stop offset="0%" style="stop-color:#38a169;stop-opacity:1" />
            <stop offset="100%" style="stop-color:#276749;stop-opacity:1" />
        </linearGradient>
    </defs>
    <rect width="100%" height="100%" fill="url(#grad15)"/>
    <!-- Farm field -->
    <rect x="50" y="200" width="300" height="50" fill="#744210"/>
    <!-- Barn -->
    <path d="M250 100 L300 150 L300 200 L200 200 L200 150 Z" fill="#c53030"/>
    <!-- Door -->
    <rect x="235" y="160" width="30" height="40" fill="#744210"/>
    <!-- Baby monsters -->
    <circle cx="100" cy="180" r="15" fill="#4fd1c5"/>
    <circle cx="150" cy="180" r="15" fill="#f687b3"/>
    <circle cx="200" cy="180" r="15" fill="#f6ad55"/>
    <!-- Eyes -->
    <circle cx="95" cy="175" r="3" fill="#2d3748"/>
    <circle cx="105" cy="175" r="3" fill="#2d3748"/>
    <circle cx="145" cy="175" r="3" fill="#2d3748"/>
    <circle cx="155" cy="175" r="3" fill="#2d3748"/>
    <circle cx="195" cy="175" r="3" fill="#2d3748"/>
    <circle cx="205" cy="175" r="3" fill="#2d3748"/>
    <!-- Smiles -->
    <path d="M95 182 Q100 185 105 182" stroke="#2d3748" stroke-width="1" fill="none"/>
    <path d="M145 182 Q150 185 155 182" stroke="#2d3748" stroke-width="1" fill="none"/>
    <path d="M195 182 Q200 185 205 182" stroke="#2d3748" stroke-width="1" fill="none"/>
    <text x="50%" y="80%" font-family="Arial" font-size="24" fill="#ffffff" text-anchor="middle">
        Monster Farm
    </text>
</svg> 